<svg width="576" height="37" viewBox="0 0 576 37" fill="none" xmlns="http://www.w3.org/2000/svg">
<path d="M12.7017 36H0.109375V3.27273H12.5739C15.9403 3.27273 18.8487 3.92791 21.299 5.23828C23.7599 6.538 25.6563 8.413 26.9879 10.8633C28.3303 13.3029 29.0014 16.2273 29.0014 19.6364C29.0014 23.0455 28.3356 25.9751 27.0039 28.4254C25.6722 30.8651 23.7866 32.7401 21.3469 34.0504C18.9073 35.3501 16.0256 36 12.7017 36ZM8.99432 28.4574H12.3821C14.0014 28.4574 15.381 28.1964 16.521 27.6744C17.6715 27.1523 18.5451 26.2521 19.1417 24.9737C19.7489 23.6953 20.0526 21.9162 20.0526 19.6364C20.0526 17.3565 19.7436 15.5774 19.1257 14.299C18.5185 13.0206 17.6236 12.1204 16.4411 11.5984C15.2692 11.0763 13.831 10.8153 12.1264 10.8153H8.99432V28.4574ZM45.0015 36.4474C42.3808 36.4474 40.1222 35.9467 38.2259 34.9453C36.3403 33.9332 34.8861 32.4844 33.8634 30.5987C32.8513 28.7024 32.3453 26.4332 32.3453 23.7912C32.3453 21.2557 32.8566 19.0398 33.8794 17.1435C34.9021 15.2472 36.3456 13.7717 38.21 12.717C40.0743 11.6623 42.2742 11.1349 44.8097 11.1349C46.6634 11.1349 48.3414 11.4226 49.8435 11.9979C51.3456 12.5732 52.6294 13.4094 53.6947 14.5067C54.76 15.5934 55.5803 16.9144 56.1556 18.4698C56.7309 20.0252 57.0186 21.7777 57.0186 23.7273V25.7727H35.0938V20.9148H48.9007C48.89 20.2116 48.7089 19.5937 48.3573 19.0611C48.0164 18.5178 47.553 18.0969 46.9671 17.7987C46.3918 17.4897 45.7366 17.3352 45.0015 17.3352C44.2877 17.3352 43.6325 17.4897 43.036 17.7987C42.4394 18.0969 41.96 18.5124 41.5977 19.0451C41.2462 19.5778 41.0597 20.201 41.0384 20.9148V26.1562C41.0384 26.9446 41.2036 27.6477 41.5338 28.2656C41.8641 28.8835 42.3382 29.3683 42.9561 29.7198C43.574 30.0714 44.3197 30.2472 45.1933 30.2472C45.8005 30.2472 46.3545 30.1619 46.8552 29.9915C47.3666 29.821 47.8034 29.576 48.1656 29.2564C48.5278 28.9261 48.7941 28.532 48.9646 28.0739H57.0186C56.7416 29.7784 56.0864 31.2592 55.053 32.5163C54.0196 33.7628 52.6507 34.7322 50.9461 35.4247C49.2522 36.1065 47.2707 36.4474 45.0015 36.4474ZM83.0542 19.4446H74.9363C74.8936 18.9439 74.7179 18.5124 74.4089 18.1502C74.1 17.788 73.7005 17.511 73.2104 17.3192C72.731 17.1168 72.1983 17.0156 71.6124 17.0156C70.856 17.0156 70.2061 17.1541 69.6628 17.4311C69.1195 17.7081 68.8532 18.1023 68.8638 18.6136C68.8532 18.9759 69.0076 19.3114 69.3272 19.6204C69.6575 19.9293 70.2914 20.169 71.2289 20.3395L76.2147 21.2344C78.7289 21.6925 80.5985 22.4648 81.8237 23.5515C83.0595 24.6275 83.6827 26.071 83.6934 27.8821C83.6827 29.6293 83.1607 31.1474 82.1273 32.4364C81.1046 33.7148 79.7037 34.7056 77.9245 35.4087C76.1561 36.1012 74.1373 36.4474 71.8681 36.4474C68.1181 36.4474 65.1831 35.6804 63.063 34.1463C60.9537 32.6122 59.7765 30.5881 59.5314 28.0739H68.2885C68.4057 28.8516 68.7892 29.4535 69.4391 29.8796C70.0996 30.2951 70.9306 30.5028 71.932 30.5028C72.7417 30.5028 73.4075 30.3643 73.9295 30.0874C74.4622 29.8104 74.7338 29.4162 74.7445 28.9048C74.7338 28.4361 74.4995 28.0632 74.0414 27.7862C73.5939 27.5092 72.8908 27.2855 71.932 27.1151L67.5854 26.348C65.0819 25.9112 63.2069 25.0803 61.9604 23.8551C60.714 22.63 60.0961 21.0533 60.1067 19.125C60.0961 17.4205 60.5435 15.9769 61.449 14.7944C62.3652 13.6012 63.6703 12.6957 65.3642 12.0778C67.0687 11.4492 69.0875 11.1349 71.4206 11.1349C74.9682 11.1349 77.7647 11.87 79.8102 13.3402C81.8663 14.8104 82.9476 16.8452 83.0542 19.4446ZM93.9126 36.3835C92.3466 36.3835 90.9616 36.1278 89.7578 35.6165C88.5646 35.0945 87.6271 34.3061 86.9453 33.2514C86.2635 32.1967 85.9226 30.8544 85.9226 29.2244C85.9226 27.8821 86.1516 26.7369 86.6097 25.7887C87.0678 24.8299 87.707 24.0469 88.5273 23.4396C89.3477 22.8324 90.3011 22.369 91.3878 22.0494C92.4851 21.7298 93.6676 21.522 94.9354 21.4261C96.3097 21.3196 97.4123 21.1918 98.2433 21.0426C99.0849 20.8828 99.6921 20.6644 100.065 20.3874C100.438 20.0998 100.624 19.7216 100.624 19.2528V19.1889C100.624 18.5497 100.379 18.0597 99.8892 17.7188C99.3991 17.3778 98.7706 17.2074 98.0036 17.2074C97.1619 17.2074 96.4748 17.3938 95.9421 17.7667C95.4201 18.1289 95.1058 18.6882 94.9993 19.4446H86.8814C86.9879 17.9531 87.462 16.5788 88.3036 15.3217C89.1559 14.054 90.397 13.0419 92.027 12.2855C93.657 11.5185 95.6918 11.1349 98.1314 11.1349C99.8892 11.1349 101.466 11.3427 102.862 11.7582C104.257 12.163 105.445 12.733 106.425 13.468C107.405 14.1925 108.151 15.0447 108.662 16.0249C109.184 16.9943 109.445 18.049 109.445 19.1889V36H101.2V32.5483H101.008C100.518 33.4645 99.9212 34.2049 99.218 34.7695C98.5256 35.3342 97.7319 35.7443 96.837 36C95.9528 36.2557 94.978 36.3835 93.9126 36.3835ZM96.7891 30.8224C97.4602 30.8224 98.0888 30.6839 98.6747 30.407C99.2713 30.13 99.756 29.7305 100.129 29.2085C100.502 28.6864 100.688 28.0526 100.688 27.3068V25.2614C100.454 25.3572 100.203 25.4478 99.9371 25.533C99.6815 25.6183 99.4045 25.6982 99.1062 25.7727C98.8185 25.8473 98.5096 25.9165 98.1793 25.9805C97.8597 26.0444 97.5241 26.103 97.1726 26.1562C96.4908 26.2628 95.9315 26.4386 95.4947 26.6836C95.0685 26.918 94.7489 27.2109 94.5359 27.5625C94.3335 27.9034 94.2322 28.2869 94.2322 28.7131C94.2322 29.3949 94.4719 29.9169 94.9513 30.2791C95.4308 30.6413 96.0433 30.8224 96.7891 30.8224ZM113.66 36V11.4545H122.225V16.1207H122.481C122.929 14.3949 123.637 13.1325 124.606 12.3335C125.587 11.5344 126.732 11.1349 128.042 11.1349C128.426 11.1349 128.804 11.1669 129.177 11.2308C129.56 11.2841 129.928 11.364 130.279 11.4705V18.9972C129.843 18.848 129.305 18.7362 128.665 18.6616C128.026 18.587 127.478 18.5497 127.019 18.5497C126.157 18.5497 125.379 18.7468 124.686 19.141C124.005 19.5245 123.467 20.0678 123.072 20.771C122.678 21.4634 122.481 22.2784 122.481 23.2159V36H113.66ZM133.172 36V11.4545H141.737V16.1207H141.993C142.44 14.3949 143.149 13.1325 144.118 12.3335C145.098 11.5344 146.244 11.1349 147.554 11.1349C147.937 11.1349 148.316 11.1669 148.688 11.2308C149.072 11.2841 149.44 11.364 149.791 11.4705V18.9972C149.354 18.848 148.816 18.7362 148.177 18.6616C147.538 18.587 146.989 18.5497 146.531 18.5497C145.668 18.5497 144.891 18.7468 144.198 19.141C143.516 19.5245 142.978 20.0678 142.584 20.771C142.19 21.4634 141.993 22.2784 141.993 23.2159V36H133.172ZM163.103 36.4474C160.439 36.4474 158.159 35.9201 156.263 34.8654C154.367 33.8001 152.913 32.3192 151.9 30.4229C150.888 28.516 150.382 26.3054 150.382 23.7912C150.382 21.277 150.888 19.0717 151.9 17.1754C152.913 15.2685 154.367 13.7876 156.263 12.733C158.159 11.6676 160.439 11.1349 163.103 11.1349C165.766 11.1349 168.046 11.6676 169.942 12.733C171.838 13.7876 173.293 15.2685 174.305 17.1754C175.317 19.0717 175.823 21.277 175.823 23.7912C175.823 26.3054 175.317 28.516 174.305 30.4229C173.293 32.3192 171.838 33.8001 169.942 34.8654C168.046 35.9201 165.766 36.4474 163.103 36.4474ZM163.166 29.9276C163.912 29.9276 164.557 29.6772 165.1 29.1765C165.643 28.6758 166.064 27.962 166.362 27.0352C166.661 26.1083 166.81 25.0057 166.81 23.7273C166.81 22.4382 166.661 21.3356 166.362 20.4194C166.064 19.4925 165.643 18.7788 165.1 18.2781C164.557 17.7773 163.912 17.527 163.166 17.527C162.378 17.527 161.702 17.7773 161.137 18.2781C160.572 18.7788 160.141 19.4925 159.843 20.4194C159.544 21.3356 159.395 22.4382 159.395 23.7273C159.395 25.0057 159.544 26.1083 159.843 27.0352C160.141 27.962 160.572 28.6758 161.137 29.1765C161.702 29.6772 162.378 29.9276 163.166 29.9276ZM188.223 3.27273V36H179.402V3.27273H188.223ZM201.539 3.27273V36H192.718V3.27273H201.539ZM212.873 36.3835C211.307 36.3835 209.922 36.1278 208.718 35.6165C207.525 35.0945 206.587 34.3061 205.905 33.2514C205.223 32.1967 204.883 30.8544 204.883 29.2244C204.883 27.8821 205.112 26.7369 205.57 25.7887C206.028 24.8299 206.667 24.0469 207.487 23.4396C208.308 22.8324 209.261 22.369 210.348 22.0494C211.445 21.7298 212.628 21.522 213.895 21.4261C215.27 21.3196 216.372 21.1918 217.203 21.0426C218.045 20.8828 218.652 20.6644 219.025 20.3874C219.398 20.0998 219.584 19.7216 219.584 19.2528V19.1889C219.584 18.5497 219.339 18.0597 218.849 17.7188C218.359 17.3778 217.731 17.2074 216.964 17.2074C216.122 17.2074 215.435 17.3938 214.902 17.7667C214.38 18.1289 214.066 18.6882 213.959 19.4446H205.841C205.948 17.9531 206.422 16.5788 207.264 15.3217C208.116 14.054 209.357 13.0419 210.987 12.2855C212.617 11.5185 214.652 11.1349 217.091 11.1349C218.849 11.1349 220.426 11.3427 221.821 11.7582C223.217 12.163 224.405 12.733 225.385 13.468C226.365 14.1925 227.111 15.0447 227.622 16.0249C228.144 16.9943 228.405 18.049 228.405 19.1889V36H220.16V32.5483H219.968C219.478 33.4645 218.881 34.2049 218.178 34.7695C217.486 35.3342 216.692 35.7443 215.797 36C214.913 36.2557 213.938 36.3835 212.873 36.3835ZM215.749 30.8224C216.42 30.8224 217.049 30.6839 217.635 30.407C218.231 30.13 218.716 29.7305 219.089 29.2085C219.462 28.6864 219.648 28.0526 219.648 27.3068V25.2614C219.414 25.3572 219.163 25.4478 218.897 25.533C218.641 25.6183 218.364 25.6982 218.066 25.7727C217.778 25.8473 217.47 25.9165 217.139 25.9805C216.82 26.0444 216.484 26.103 216.133 26.1562C215.451 26.2628 214.891 26.4386 214.455 26.6836C214.028 26.918 213.709 27.2109 213.496 27.5625C213.293 27.9034 213.192 28.2869 213.192 28.7131C213.192 29.3949 213.432 29.9169 213.911 30.2791C214.391 30.6413 215.003 30.8224 215.749 30.8224ZM241.505 36.3196C239.758 36.3196 238.149 35.8615 236.679 34.9453C235.219 34.0291 234.048 32.6388 233.163 30.7745C232.29 28.9102 231.853 26.5611 231.853 23.7273C231.853 20.7656 232.311 18.358 233.227 16.5043C234.154 14.6506 235.347 13.2923 236.807 12.4293C238.277 11.5664 239.822 11.1349 241.441 11.1349C242.656 11.1349 243.721 11.348 244.637 11.7741C245.553 12.1896 246.32 12.7489 246.938 13.4521C247.556 14.1445 248.025 14.9062 248.344 15.7372H248.472V3.27273H257.293V36H248.536V31.973H248.344C248.004 32.804 247.513 33.5497 246.874 34.2102C246.246 34.8601 245.479 35.3768 244.573 35.7603C243.678 36.1332 242.656 36.3196 241.505 36.3196ZM244.765 29.544C245.575 29.544 246.267 29.3097 246.842 28.8409C247.428 28.3615 247.876 27.6903 248.185 26.8274C248.504 25.9538 248.664 24.9205 248.664 23.7273C248.664 22.5128 248.504 21.4741 248.185 20.6112C247.876 19.7376 247.428 19.0717 246.842 18.6136C246.267 18.1449 245.575 17.9105 244.765 17.9105C243.955 17.9105 243.263 18.1449 242.688 18.6136C242.123 19.0717 241.686 19.7376 241.377 20.6112C241.079 21.4741 240.93 22.5128 240.93 23.7273C240.93 24.9418 241.079 25.9858 241.377 26.8594C241.686 27.7223 242.123 28.3881 242.688 28.8569C243.263 29.315 243.955 29.544 244.765 29.544ZM273.449 36.4474C270.786 36.4474 268.506 35.9201 266.61 34.8654C264.713 33.8001 263.259 32.3192 262.247 30.4229C261.235 28.516 260.729 26.3054 260.729 23.7912C260.729 21.277 261.235 19.0717 262.247 17.1754C263.259 15.2685 264.713 13.7876 266.61 12.733C268.506 11.6676 270.786 11.1349 273.449 11.1349C276.113 11.1349 278.392 11.6676 280.289 12.733C282.185 13.7876 283.639 15.2685 284.651 17.1754C285.663 19.0717 286.169 21.277 286.169 23.7912C286.169 26.3054 285.663 28.516 284.651 30.4229C283.639 32.3192 282.185 33.8001 280.289 34.8654C278.392 35.9201 276.113 36.4474 273.449 36.4474ZM273.513 29.9276C274.259 29.9276 274.903 29.6772 275.447 29.1765C275.99 28.6758 276.411 27.962 276.709 27.0352C277.007 26.1083 277.157 25.0057 277.157 23.7273C277.157 22.4382 277.007 21.3356 276.709 20.4194C276.411 19.4925 275.99 18.7788 275.447 18.2781C274.903 17.7773 274.259 17.527 273.513 17.527C272.725 17.527 272.048 17.7773 271.484 18.2781C270.919 18.7788 270.488 19.4925 270.189 20.4194C269.891 21.3356 269.742 22.4382 269.742 23.7273C269.742 25.0057 269.891 26.1083 270.189 27.0352C270.488 27.962 270.919 28.6758 271.484 29.1765C272.048 29.6772 272.725 29.9276 273.513 29.9276ZM289.749 36V11.4545H298.314V16.1207H298.57C299.017 14.3949 299.726 13.1325 300.695 12.3335C301.675 11.5344 302.821 11.1349 304.131 11.1349C304.515 11.1349 304.893 11.1669 305.266 11.2308C305.649 11.2841 306.017 11.364 306.368 11.4705V18.9972C305.931 18.848 305.393 18.7362 304.754 18.6616C304.115 18.587 303.566 18.5497 303.108 18.5497C302.245 18.5497 301.468 18.7468 300.775 19.141C300.093 19.5245 299.555 20.0678 299.161 20.771C298.767 21.4634 298.57 22.2784 298.57 23.2159V36H289.749ZM331.585 3.27273H340.342V25.7088C340.331 27.8395 339.793 29.7145 338.728 31.3338C337.673 32.9425 336.214 34.1996 334.349 35.1051C332.496 36 330.36 36.4474 327.941 36.4474C325.843 36.4474 323.925 36.0852 322.189 35.3608C320.452 34.6257 319.067 33.4751 318.034 31.9091C317 30.3324 316.489 28.2869 316.5 25.7727H325.385C325.417 26.593 325.555 27.2855 325.8 27.8501C326.056 28.4148 326.407 28.8409 326.855 29.1286C327.313 29.4055 327.867 29.544 328.517 29.544C329.177 29.544 329.731 29.4002 330.179 29.1126C330.637 28.8249 330.983 28.3988 331.217 27.8342C331.452 27.2589 331.574 26.5504 331.585 25.7088V3.27273ZM351.52 36.3835C349.954 36.3835 348.569 36.1278 347.365 35.6165C346.172 35.0945 345.235 34.3061 344.553 33.2514C343.871 32.1967 343.53 30.8544 343.53 29.2244C343.53 27.8821 343.759 26.7369 344.217 25.7887C344.675 24.8299 345.314 24.0469 346.135 23.4396C346.955 22.8324 347.909 22.369 348.995 22.0494C350.093 21.7298 351.275 21.522 352.543 21.4261C353.917 21.3196 355.02 21.1918 355.851 21.0426C356.692 20.8828 357.3 20.6644 357.672 20.3874C358.045 20.0998 358.232 19.7216 358.232 19.2528V19.1889C358.232 18.5497 357.987 18.0597 357.497 17.7188C357.007 17.3778 356.378 17.2074 355.611 17.2074C354.769 17.2074 354.082 17.3938 353.55 17.7667C353.028 18.1289 352.713 18.6882 352.607 19.4446H344.489C344.595 17.9531 345.069 16.5788 345.911 15.3217C346.763 14.054 348.004 13.0419 349.634 12.2855C351.264 11.5185 353.299 11.1349 355.739 11.1349C357.497 11.1349 359.073 11.3427 360.469 11.7582C361.865 12.163 363.052 12.733 364.032 13.468C365.013 14.1925 365.758 15.0447 366.27 16.0249C366.792 16.9943 367.053 18.049 367.053 19.1889V36H358.807V32.5483H358.615C358.125 33.4645 357.529 34.2049 356.825 34.7695C356.133 35.3342 355.339 35.7443 354.444 36C353.56 36.2557 352.585 36.3835 351.52 36.3835ZM354.396 30.8224C355.068 30.8224 355.696 30.6839 356.282 30.407C356.879 30.13 357.363 29.7305 357.736 29.2085C358.109 28.6864 358.296 28.0526 358.296 27.3068V25.2614C358.061 25.3572 357.811 25.4478 357.545 25.533C357.289 25.6183 357.012 25.6982 356.714 25.7727C356.426 25.8473 356.117 25.9165 355.787 25.9805C355.467 26.0444 355.132 26.103 354.78 26.1562C354.098 26.2628 353.539 26.4386 353.102 26.6836C352.676 26.918 352.356 27.2109 352.143 27.5625C351.941 27.9034 351.84 28.2869 351.84 28.7131C351.84 29.3949 352.079 29.9169 352.559 30.2791C353.038 30.6413 353.651 30.8224 354.396 30.8224ZM395.126 11.4545L386.88 36H376.653L368.407 11.4545H377.676L381.639 27.6903H381.894L385.857 11.4545H395.126ZM403.859 36.3835C402.293 36.3835 400.908 36.1278 399.704 35.6165C398.511 35.0945 397.573 34.3061 396.892 33.2514C396.21 32.1967 395.869 30.8544 395.869 29.2244C395.869 27.8821 396.098 26.7369 396.556 25.7887C397.014 24.8299 397.653 24.0469 398.474 23.4396C399.294 22.8324 400.247 22.369 401.334 22.0494C402.431 21.7298 403.614 21.522 404.882 21.4261C406.256 21.3196 407.359 21.1918 408.19 21.0426C409.031 20.8828 409.638 20.6644 410.011 20.3874C410.384 20.0998 410.571 19.7216 410.571 19.2528V19.1889C410.571 18.5497 410.326 18.0597 409.835 17.7188C409.345 17.3778 408.717 17.2074 407.95 17.2074C407.108 17.2074 406.421 17.3938 405.888 17.7667C405.366 18.1289 405.052 18.6882 404.946 19.4446H396.828C396.934 17.9531 397.408 16.5788 398.25 15.3217C399.102 14.054 400.343 13.0419 401.973 12.2855C403.603 11.5185 405.638 11.1349 408.078 11.1349C409.835 11.1349 411.412 11.3427 412.808 11.7582C414.203 12.163 415.391 12.733 416.371 13.468C417.351 14.1925 418.097 15.0447 418.609 16.0249C419.131 16.9943 419.392 18.049 419.392 19.1889V36H411.146V32.5483H410.954C410.464 33.4645 409.867 34.2049 409.164 34.7695C408.472 35.3342 407.678 35.7443 406.783 36C405.899 36.2557 404.924 36.3835 403.859 36.3835ZM406.735 30.8224C407.407 30.8224 408.035 30.6839 408.621 30.407C409.218 30.13 409.702 29.7305 410.075 29.2085C410.448 28.6864 410.635 28.0526 410.635 27.3068V25.2614C410.4 25.3572 410.15 25.4478 409.883 25.533C409.628 25.6183 409.351 25.6982 409.052 25.7727C408.765 25.8473 408.456 25.9165 408.126 25.9805C407.806 26.0444 407.47 26.103 407.119 26.1562C406.437 26.2628 405.878 26.4386 405.441 26.6836C405.015 26.918 404.695 27.2109 404.482 27.5625C404.28 27.9034 404.179 28.2869 404.179 28.7131C404.179 29.3949 404.418 29.9169 404.898 30.2791C405.377 30.6413 405.99 30.8224 406.735 30.8224ZM445.931 3.27273H454.688V25.7088C454.677 27.8395 454.139 29.7145 453.074 31.3338C452.019 32.9425 450.559 34.1996 448.695 35.1051C446.841 36 444.705 36.4474 442.287 36.4474C440.188 36.4474 438.271 36.0852 436.534 35.3608C434.798 34.6257 433.413 33.4751 432.379 31.9091C431.346 30.3324 430.835 28.2869 430.845 25.7727H439.73C439.762 26.593 439.901 27.2855 440.146 27.8501C440.401 28.4148 440.753 28.8409 441.2 29.1286C441.659 29.4055 442.213 29.544 442.862 29.544C443.523 29.544 444.077 29.4002 444.524 29.1126C444.982 28.8249 445.329 28.3988 445.563 27.8342C445.797 27.2589 445.92 26.5504 445.931 25.7088V3.27273ZM474.942 25.2614V11.4545H483.763V36H475.39V31.3338H475.134C474.602 32.8999 473.669 34.125 472.338 35.0092C471.006 35.8828 469.424 36.3196 467.592 36.3196C465.876 36.3196 464.374 35.9254 463.085 35.1371C461.807 34.3487 460.811 33.2621 460.097 31.8771C459.394 30.4922 459.037 28.9048 459.026 27.1151V11.4545H467.847V25.2614C467.858 26.4759 468.167 27.4293 468.774 28.1218C469.392 28.8143 470.255 29.1605 471.363 29.1605C472.098 29.1605 472.732 29.006 473.265 28.6971C473.808 28.3775 474.223 27.93 474.511 27.3548C474.809 26.7688 474.953 26.071 474.942 25.2614ZM497.071 22.1932V36H488.25V11.4545H496.623V16.1207H496.879C497.412 14.5653 498.349 13.3455 499.692 12.4613C501.045 11.5771 502.621 11.1349 504.422 11.1349C506.158 11.1349 507.666 11.5344 508.944 12.3335C510.233 13.1218 511.229 14.2085 511.932 15.5934C512.646 16.9783 512.998 18.5604 512.987 20.3395V36H504.166V22.1932C504.177 20.9787 503.868 20.0252 503.239 19.3327C502.621 18.6403 501.758 18.294 500.65 18.294C499.926 18.294 499.292 18.4538 498.749 18.7734C498.216 19.0824 497.806 19.5298 497.518 20.1158C497.231 20.6911 497.082 21.3835 497.071 22.1932ZM517.342 36V11.4545H526.163V36H517.342ZM521.752 8.89773C520.559 8.89773 519.536 8.50355 518.684 7.7152C517.832 6.92685 517.406 5.97869 517.406 4.87074C517.406 3.76278 517.832 2.81463 518.684 2.02628C519.536 1.23793 520.559 0.84375 521.752 0.84375C522.956 0.84375 523.979 1.23793 524.82 2.02628C525.673 2.81463 526.099 3.76278 526.099 4.87074C526.099 5.97869 525.673 6.92685 524.82 7.7152C523.979 8.50355 522.956 8.89773 521.752 8.89773ZM542.482 36.4474C539.819 36.4474 537.539 35.9201 535.643 34.8654C533.747 33.8001 532.292 32.3192 531.28 30.4229C530.268 28.516 529.762 26.3054 529.762 23.7912C529.762 21.277 530.268 19.0717 531.28 17.1754C532.292 15.2685 533.747 13.7876 535.643 12.733C537.539 11.6676 539.819 11.1349 542.482 11.1349C545.146 11.1349 547.426 11.6676 549.322 12.733C551.218 13.7876 552.672 15.2685 553.684 17.1754C554.697 19.0717 555.203 21.277 555.203 23.7912C555.203 26.3054 554.697 28.516 553.684 30.4229C552.672 32.3192 551.218 33.8001 549.322 34.8654C547.426 35.9201 545.146 36.4474 542.482 36.4474ZM542.546 29.9276C543.292 29.9276 543.937 29.6772 544.48 29.1765C545.023 28.6758 545.444 27.962 545.742 27.0352C546.041 26.1083 546.19 25.0057 546.19 23.7273C546.19 22.4382 546.041 21.3356 545.742 20.4194C545.444 19.4925 545.023 18.7788 544.48 18.2781C543.937 17.7773 543.292 17.527 542.546 17.527C541.758 17.527 541.081 17.7773 540.517 18.2781C539.952 18.7788 539.521 19.4925 539.222 20.4194C538.924 21.3356 538.775 22.4382 538.775 23.7273C538.775 25.0057 538.924 26.1083 539.222 27.0352C539.521 27.962 539.952 28.6758 540.517 29.1765C541.081 29.6772 541.758 29.9276 542.546 29.9276ZM558.782 36V11.4545H567.347V16.1207H567.603C568.051 14.3949 568.759 13.1325 569.729 12.3335C570.709 11.5344 571.854 11.1349 573.164 11.1349C573.548 11.1349 573.926 11.1669 574.299 11.2308C574.682 11.2841 575.05 11.364 575.401 11.4705V18.9972C574.965 18.848 574.427 18.7362 573.787 18.6616C573.148 18.587 572.6 18.5497 572.142 18.5497C571.279 18.5497 570.501 18.7468 569.808 19.141C569.127 19.5245 568.589 20.0678 568.194 20.771C567.8 21.4634 567.603 22.2784 567.603 23.2159V36H558.782Z" fill="white"/>
</svg>
