<svg width="577" height="61" viewBox="0 0 577 61" fill="none" xmlns="http://www.w3.org/2000/svg">
<path d="M21.3712 3.15554H33.3706V33.8985C33.356 36.8181 32.6188 39.3873 31.159 41.6062C29.7138 43.8104 27.7139 45.533 25.1593 46.7738C22.6193 48 19.6924 48.6131 16.3787 48.6131C13.503 48.6131 10.8754 48.1168 8.49592 47.1241C6.11648 46.1169 4.21877 44.5403 2.80278 42.3944C1.38679 40.234 0.686097 37.4312 0.700695 33.9861H12.8753C12.9191 35.1101 13.1088 36.059 13.4446 36.8327C13.7949 37.6064 14.2767 38.1903 14.8898 38.5844C15.5175 38.964 16.2766 39.1537 17.167 39.1537C18.0721 39.1537 18.8312 38.9567 19.4443 38.5625C20.072 38.1684 20.5464 37.5845 20.8676 36.8108C21.1887 36.0225 21.3566 35.0517 21.3712 33.8985V3.15554ZM55.5191 48.6131C51.8697 48.6131 48.7457 47.8905 46.1473 46.4453C43.5489 44.9856 41.5563 42.9565 40.1695 40.358C38.7827 37.745 38.0893 34.716 38.0893 31.2709C38.0893 27.8258 38.7827 24.8041 40.1695 22.2057C41.5563 19.5927 43.5489 17.5636 46.1473 16.1184C48.7457 14.6586 51.8697 13.9287 55.5191 13.9287C59.1686 13.9287 62.2925 14.6586 64.8909 16.1184C67.4893 17.5636 69.4819 19.5927 70.8687 22.2057C72.2555 24.8041 72.9489 27.8258 72.9489 31.2709C72.9489 34.716 72.2555 37.745 70.8687 40.358C69.4819 42.9565 67.4893 44.9856 64.8909 46.4453C62.2925 47.8905 59.1686 48.6131 55.5191 48.6131ZM55.6067 39.6793C56.6285 39.6793 57.5117 39.3362 58.2562 38.6501C59.0007 37.964 59.5773 36.986 59.986 35.7159C60.3948 34.4459 60.5991 32.9351 60.5991 31.1833C60.5991 29.417 60.3948 27.9061 59.986 26.6507C59.5773 25.3807 59.0007 24.4026 58.2562 23.7166C57.5117 23.0305 56.6285 22.6874 55.6067 22.6874C54.5265 22.6874 53.5995 23.0305 52.8258 23.7166C52.0521 24.4026 51.4609 25.3807 51.0522 26.6507C50.6434 27.9061 50.4391 29.417 50.4391 31.1833C50.4391 32.9351 50.6434 34.4459 51.0522 35.7159C51.4609 36.986 52.0521 37.964 52.8258 38.6501C53.5995 39.3362 54.5265 39.6793 55.6067 39.6793ZM108.597 25.315H97.4732C97.4148 24.6289 97.1739 24.0377 96.7506 23.5414C96.3273 23.0451 95.7799 22.6655 95.1084 22.4027C94.4515 22.1254 93.7216 21.9867 92.9187 21.9867C91.8822 21.9867 90.9918 22.1765 90.2473 22.556C89.5028 22.9356 89.1379 23.4757 89.1524 24.1764C89.1379 24.6727 89.3495 25.1325 89.7875 25.5559C90.24 25.9792 91.1086 26.3077 92.3932 26.5412L99.2249 27.7674C102.67 28.3951 105.232 29.4535 106.911 30.9425C108.604 32.4168 109.458 34.3948 109.473 36.8765C109.458 39.2705 108.743 41.3507 107.327 43.117C105.925 44.8688 104.006 46.2264 101.568 47.1898C99.1446 48.1387 96.3784 48.6131 93.269 48.6131C88.1306 48.6131 84.1089 47.5621 81.2039 45.46C78.3136 43.3579 76.7005 40.5843 76.3648 37.1392H88.3642C88.5247 38.2049 89.0503 39.0296 89.9407 39.6136C90.8458 40.1829 91.9844 40.4675 93.3566 40.4675C94.466 40.4675 95.3784 40.2778 96.0937 39.8982C96.8236 39.5187 97.1958 38.9786 97.2104 38.2779C97.1958 37.6356 96.8747 37.1246 96.247 36.7451C95.6339 36.3655 94.6704 36.059 93.3566 35.8254L87.4007 34.7744C83.9702 34.1759 81.401 33.0372 79.6931 31.3585C77.9851 29.6798 77.1385 27.5193 77.1531 24.8771C77.1385 22.5414 77.7516 20.5634 78.9924 18.9431C80.2478 17.3081 82.036 16.0673 84.3571 15.2206C86.6927 14.3594 89.459 13.9287 92.6559 13.9287C97.517 13.9287 101.349 14.936 104.152 16.9505C106.969 18.965 108.451 21.7531 108.597 25.315ZM130.22 48.6131C126.629 48.6131 123.534 47.927 120.936 46.5548C118.352 45.168 116.359 43.1827 114.958 40.5989C113.571 38.0005 112.878 34.8912 112.878 31.2709C112.878 27.7966 113.578 24.7603 114.98 22.1619C116.381 19.5635 118.359 17.5417 120.914 16.0965C123.468 14.6513 126.483 13.9287 129.957 13.9287C132.497 13.9287 134.796 14.3229 136.854 15.1111C138.913 15.8994 140.672 17.0454 142.132 18.5489C143.591 20.0379 144.715 21.848 145.504 23.9793C146.292 26.1106 146.686 28.5119 146.686 31.1833V33.9861H116.644V27.3295H135.563C135.548 26.3661 135.3 25.5194 134.818 24.7895C134.351 24.045 133.716 23.4684 132.913 23.0596C132.125 22.6363 131.227 22.4246 130.22 22.4246C129.242 22.4246 128.344 22.6363 127.526 23.0596C126.709 23.4684 126.052 24.0377 125.556 24.7676C125.074 25.4975 124.819 26.3515 124.789 27.3295V34.5116C124.789 35.5919 125.016 36.5553 125.468 37.402C125.921 38.2487 126.57 38.9129 127.417 39.3946C128.264 39.8763 129.285 40.1172 130.482 40.1172C131.315 40.1172 132.074 40.0004 132.76 39.7668C133.46 39.5333 134.059 39.1975 134.555 38.7596C135.052 38.3071 135.417 37.7669 135.65 37.1392H146.686C146.307 39.4749 145.409 41.504 143.993 43.2265C142.577 44.9345 140.701 46.2629 138.365 47.2117C136.044 48.146 133.329 48.6131 130.22 48.6131ZM125.753 10.1625L129.957 0.352762H140.292L133.723 10.1625H125.753ZM205.594 19.9722H193.244C193.156 18.9504 192.923 18.0234 192.543 17.1913C192.178 16.3593 191.667 15.644 191.01 15.0455C190.368 14.4323 189.587 13.9652 188.668 13.6441C187.748 13.3083 186.704 13.1404 185.536 13.1404C183.493 13.1404 181.763 13.6368 180.347 14.6294C178.945 15.6221 177.88 17.0454 177.15 18.8993C176.435 20.7532 176.077 22.9794 176.077 25.5778C176.077 28.3222 176.442 30.6213 177.172 32.4752C177.916 34.3146 178.989 35.7013 180.391 36.6356C181.792 37.5553 183.478 38.0151 185.449 38.0151C186.573 38.0151 187.58 37.8764 188.47 37.5991C189.361 37.3071 190.135 36.8911 190.791 36.351C191.448 35.8108 191.981 35.1612 192.39 34.4021C192.813 33.6285 193.098 32.7599 193.244 31.7964L205.594 31.884C205.448 33.7817 204.915 35.7159 203.995 37.6867C203.076 39.6428 201.769 41.4529 200.076 43.117C198.397 44.7666 196.317 46.095 193.835 47.1022C191.354 48.1095 188.47 48.6131 185.186 48.6131C181.069 48.6131 177.376 47.7299 174.106 45.9636C170.851 44.1973 168.274 41.5989 166.377 38.1684C164.494 34.7379 163.552 30.541 163.552 25.5778C163.552 20.5853 164.515 16.3812 166.442 12.9653C168.369 9.53478 170.968 6.94367 174.238 5.19193C177.507 3.4256 181.157 2.54243 185.186 2.54243C188.018 2.54243 190.624 2.92927 193.003 3.70296C195.382 4.47664 197.47 5.60797 199.266 7.09695C201.061 8.57133 202.506 10.3888 203.601 12.5492C204.696 14.7097 205.36 17.184 205.594 19.9722ZM211.292 48V14.3667H223.029V20.7605H223.379C223.992 18.3957 224.963 16.6658 226.292 15.571C227.635 14.4761 229.204 13.9287 230.999 13.9287C231.525 13.9287 232.043 13.9725 232.554 14.0601C233.08 14.1331 233.583 14.2426 234.065 14.3886V24.7019C233.466 24.4975 232.729 24.3443 231.853 24.2421C230.977 24.1399 230.226 24.0888 229.598 24.0888C228.416 24.0888 227.35 24.3589 226.401 24.899C225.467 25.4245 224.73 26.169 224.189 27.1324C223.649 28.0813 223.379 29.198 223.379 30.4826V48H211.292ZM259.837 33.2854V14.3667H271.924V48H260.45V41.6062H260.1C259.37 43.752 258.093 45.4308 256.268 46.6424C254.443 47.8394 252.276 48.4379 249.765 48.4379C247.415 48.4379 245.356 47.8978 243.59 46.8176C241.838 45.7373 240.473 44.2484 239.495 42.3506C238.532 40.4529 238.043 38.2779 238.028 35.8254V14.3667H250.115V33.2854C250.13 34.9496 250.553 36.2561 251.385 37.2049C252.232 38.1538 253.414 38.6282 254.932 38.6282C255.94 38.6282 256.808 38.4165 257.538 37.9932C258.283 37.5553 258.852 36.9422 259.246 36.1539C259.655 35.351 259.852 34.3948 259.837 33.2854ZM278.422 48V41.3434L293.137 23.7384V23.5633H278.948V14.3667H307.413V21.724L294.013 38.6282V38.8034H307.939V48H278.422ZM350.906 17.1694C350.789 15.7097 350.242 14.571 349.263 13.7535C348.3 12.9361 346.833 12.5273 344.862 12.5273C343.607 12.5273 342.578 12.6806 341.775 12.9872C340.986 13.2791 340.403 13.6806 340.023 14.1915C339.643 14.7024 339.446 15.2863 339.432 15.9432C339.403 16.4833 339.498 16.9724 339.716 17.4103C339.95 17.8336 340.315 18.2205 340.811 18.5708C341.308 18.9066 341.943 19.2131 342.716 19.4905C343.49 19.7678 344.41 20.016 345.475 20.235L349.154 21.0233C351.636 21.5488 353.76 22.2422 355.526 23.1034C357.292 23.9647 358.737 24.9793 359.861 26.1471C360.985 27.3003 361.81 28.5995 362.336 30.0447C362.876 31.4899 363.153 33.0664 363.168 34.7744C363.153 37.7231 362.416 40.2194 360.956 42.2631C359.497 44.3068 357.409 45.8614 354.694 46.9271C351.993 47.9927 348.745 48.5255 344.95 48.5255C341.052 48.5255 337.651 47.9489 334.746 46.7957C331.856 45.6425 329.608 43.8688 328.002 41.4748C326.411 39.0661 325.608 35.986 325.593 32.2344H337.155C337.228 33.6066 337.571 34.7598 338.184 35.694C338.797 36.6283 339.658 37.3363 340.768 37.818C341.892 38.2998 343.227 38.5406 344.775 38.5406C346.074 38.5406 347.161 38.38 348.037 38.0589C348.913 37.7377 349.577 37.2925 350.03 36.7232C350.482 36.1539 350.716 35.5043 350.731 34.7744C350.716 34.0883 350.49 33.4898 350.052 32.9789C349.628 32.4533 348.928 31.9862 347.95 31.5775C346.972 31.1541 345.65 30.76 343.986 30.395L339.519 29.4316C335.549 28.5703 332.418 27.1324 330.126 25.1179C327.848 23.0888 326.717 20.3226 326.732 16.8191C326.717 13.9725 327.476 11.4836 329.009 9.35231C330.556 7.20643 332.695 5.53498 335.425 4.33796C338.169 3.14094 341.315 2.54243 344.862 2.54243C348.482 2.54243 351.614 3.14824 354.256 4.35986C356.898 5.57148 358.934 7.27942 360.365 9.48369C361.81 11.6734 362.54 14.2353 362.555 17.1694H350.906ZM377.346 48.5255C375.2 48.5255 373.302 48.1752 371.653 47.4745C370.018 46.7592 368.733 45.6789 367.799 44.2338C366.865 42.7886 366.398 40.9493 366.398 38.7158C366.398 36.8765 366.711 35.3072 367.339 34.008C367.967 32.6942 368.843 31.6213 369.967 30.7892C371.091 29.9571 372.397 29.3221 373.886 28.8842C375.39 28.4462 377.01 28.1616 378.747 28.0302C380.63 27.8842 382.141 27.7091 383.28 27.5047C384.433 27.2857 385.265 26.9865 385.776 26.6069C386.287 26.2128 386.543 25.6946 386.543 25.0523V24.9647C386.543 24.0888 386.207 23.4173 385.535 22.9502C384.864 22.483 384.003 22.2495 382.952 22.2495C381.798 22.2495 380.857 22.5049 380.127 23.0159C379.412 23.5122 378.981 24.2786 378.835 25.315H367.711C367.857 23.2713 368.507 21.3882 369.66 19.6657C370.828 17.9285 372.529 16.5417 374.762 15.5053C376.996 14.4542 379.784 13.9287 383.127 13.9287C385.535 13.9287 387.696 14.2134 389.608 14.7827C391.52 15.3374 393.148 16.1184 394.491 17.1256C395.834 18.1183 396.856 19.2861 397.557 20.6291C398.272 21.9575 398.63 23.4027 398.63 24.9647V48H387.331V43.2703H387.068C386.397 44.5257 385.579 45.5403 384.616 46.314C383.667 47.0876 382.579 47.6497 381.353 48C380.141 48.3503 378.806 48.5255 377.346 48.5255ZM381.287 40.9055C382.207 40.9055 383.068 40.7157 383.871 40.3362C384.689 39.9566 385.353 39.4092 385.864 38.6939C386.375 37.9786 386.63 37.11 386.63 36.0882V33.2854C386.309 33.4168 385.966 33.5409 385.601 33.6577C385.251 33.7744 384.871 33.8839 384.462 33.9861C384.068 34.0883 383.645 34.1832 383.192 34.2708C382.754 34.3584 382.295 34.4386 381.813 34.5116C380.879 34.6576 380.112 34.8985 379.514 35.2342C378.93 35.5554 378.492 35.9568 378.2 36.4385C377.923 36.9057 377.784 37.4312 377.784 38.0151C377.784 38.9494 378.112 39.6647 378.769 40.161C379.426 40.6573 380.266 40.9055 381.287 40.9055ZM416.492 29.0812V48H404.405V14.3667H415.879V20.7605H416.229C416.959 18.6292 418.244 16.9578 420.083 15.7462C421.937 14.5345 424.097 13.9287 426.564 13.9287C428.944 13.9287 431.009 14.4761 432.761 15.571C434.527 16.6512 435.892 18.1402 436.856 20.0379C437.834 21.9356 438.316 24.1034 438.301 26.5412V48H426.214V29.0812C426.229 27.4171 425.805 26.1106 424.944 25.1617C424.097 24.2129 422.915 23.7384 421.397 23.7384C420.404 23.7384 419.535 23.9574 418.791 24.3953C418.061 24.8187 417.499 25.4318 417.105 26.2347C416.711 27.023 416.506 27.9718 416.492 29.0812ZM464.325 14.3667V23.1253H442.166V14.3667H464.325ZM446.457 6.30867H458.544V37.183C458.544 37.6502 458.625 38.0443 458.785 38.3654C458.946 38.672 459.194 38.9056 459.53 39.0661C459.866 39.2121 460.296 39.2851 460.822 39.2851C461.187 39.2851 461.61 39.2413 462.092 39.1537C462.588 39.0661 462.953 38.9932 463.187 38.9348L464.938 47.4307C464.398 47.5913 463.624 47.7883 462.617 48.0219C461.625 48.2555 460.442 48.4087 459.07 48.4817C456.296 48.6277 453.968 48.343 452.085 47.6278C450.202 46.8979 448.786 45.7519 447.837 44.19C446.888 42.628 446.428 40.6719 446.457 38.3217V6.30867ZM485.1 48.6131C481.45 48.6131 478.326 47.8905 475.728 46.4453C473.129 44.9856 471.137 42.9565 469.75 40.358C468.363 37.745 467.67 34.716 467.67 31.2709C467.67 27.8258 468.363 24.8041 469.75 22.2057C471.137 19.5927 473.129 17.5636 475.728 16.1184C478.326 14.6586 481.45 13.9287 485.1 13.9287C488.749 13.9287 491.873 14.6586 494.471 16.1184C497.07 17.5636 499.062 19.5927 500.449 22.2057C501.836 24.8041 502.529 27.8258 502.529 31.2709C502.529 34.716 501.836 37.745 500.449 40.358C499.062 42.9565 497.07 44.9856 494.471 46.4453C491.873 47.8905 488.749 48.6131 485.1 48.6131ZM485.187 39.6793C486.209 39.6793 487.092 39.3362 487.837 38.6501C488.581 37.964 489.158 36.986 489.567 35.7159C489.975 34.4459 490.18 32.9351 490.18 31.1833C490.18 29.417 489.975 27.9061 489.567 26.6507C489.158 25.3807 488.581 24.4026 487.837 23.7166C487.092 23.0305 486.209 22.6874 485.187 22.6874C484.107 22.6874 483.18 23.0305 482.406 23.7166C481.633 24.4026 481.041 25.3807 480.633 26.6507C480.224 27.9061 480.02 29.417 480.02 31.1833C480.02 32.9351 480.224 34.4459 480.633 35.7159C481.041 36.986 481.633 37.964 482.406 38.6501C483.18 39.3362 484.107 39.6793 485.187 39.6793ZM513.768 60.6125C512.381 60.6125 511.06 60.503 509.805 60.2841C508.549 60.0797 507.447 59.795 506.498 59.4301L509.126 50.8466C510.118 51.1969 511.024 51.4232 511.841 51.5254C512.673 51.6276 513.381 51.5692 513.965 51.3502C514.564 51.1312 514.994 50.7152 515.257 50.1021L515.52 49.489L503.695 14.3667H516.308L521.738 37.6648H522.089L527.607 14.3667H540.307L528.045 50.8028C527.431 52.6567 526.541 54.3208 525.373 55.7952C524.22 57.2842 522.702 58.4593 520.819 59.3206C518.936 60.1819 516.585 60.6125 513.768 60.6125ZM558.924 48.6131C555.275 48.6131 552.151 47.8905 549.553 46.4453C546.954 44.9856 544.962 42.9565 543.575 40.358C542.188 37.745 541.495 34.716 541.495 31.2709C541.495 27.8258 542.188 24.8041 543.575 22.2057C544.962 19.5927 546.954 17.5636 549.553 16.1184C552.151 14.6586 555.275 13.9287 558.924 13.9287C562.574 13.9287 565.698 14.6586 568.296 16.1184C570.895 17.5636 572.887 19.5927 574.274 22.2057C575.661 24.8041 576.354 27.8258 576.354 31.2709C576.354 34.716 575.661 37.745 574.274 40.358C572.887 42.9565 570.895 44.9856 568.296 46.4453C565.698 47.8905 562.574 48.6131 558.924 48.6131ZM559.012 39.6793C560.034 39.6793 560.917 39.3362 561.662 38.6501C562.406 37.964 562.983 36.986 563.391 35.7159C563.8 34.4459 564.004 32.9351 564.004 31.1833C564.004 29.417 563.8 27.9061 563.391 26.6507C562.983 25.3807 562.406 24.4026 561.662 23.7166C560.917 23.0305 560.034 22.6874 559.012 22.6874C557.932 22.6874 557.005 23.0305 556.231 23.7166C555.457 24.4026 554.866 25.3807 554.458 26.6507C554.049 27.9061 553.844 29.417 553.844 31.1833C553.844 32.9351 554.049 34.4459 554.458 35.7159C554.866 36.986 555.457 37.964 556.231 38.6501C557.005 39.3362 557.932 39.6793 559.012 39.6793Z" fill="white"/>
</svg>
